<svg width="353" height="81" viewBox="0 0 353 81" fill="none" xmlns="http://www.w3.org/2000/svg">
<mask id="mask0_1371_48" style="mask-type:luminance" maskUnits="userSpaceOnUse" x="5" y="0" width="76" height="27">
<path d="M5.25757 0H80.391V26.8954H5.25757V0Z" fill="#0066FF"/>
</mask>
<g mask="url(#mask0_1371_48)">
<path fill-rule="evenodd" clip-rule="evenodd" d="M42.6974 0C55.2928 5.32245 67.7692 10.9624 80.3487 16.3179C80.4161 19.8411 80.3818 23.3656 80.3818 26.8954C55.3655 26.8821 30.3413 26.8888 5.31836 26.8888C5.27739 23.3921 5.33158 19.9033 5.25757 16.4066C17.7155 10.9082 30.1853 5.37669 42.6974 0Z" fill="#0066FF"/>
</g>
<path fill-rule="evenodd" clip-rule="evenodd" d="M9.58067 29.6816C15.0259 29.7359 20.4711 29.6684 25.9084 29.7226C25.915 31.0284 25.915 32.3329 25.9216 33.6453L23.0444 33.7062C23.0179 43.6062 23.0312 53.501 23.0378 63.401L25.9018 63.4407L25.9216 67.1147C20.4764 67.1756 15.0246 67.1068 9.57935 67.1544C9.58728 65.8896 9.58728 64.6182 9.58728 63.3468C10.5931 63.3812 11.6002 63.4077 12.6006 63.4354C12.6139 53.5076 12.6059 43.5798 12.6059 33.652L9.58728 33.6917C9.58728 32.3541 9.58728 31.0218 9.57935 29.6829M34.7661 29.757C40.1505 29.5943 45.5548 29.7769 50.9458 29.6816C50.9458 31.0139 50.9524 32.3541 50.9524 33.685C50.0339 33.6784 49.1074 33.6652 48.1902 33.6586C48.1505 43.5864 48.2166 53.5142 48.1505 63.4421L50.9524 63.3402V67.161C45.5336 67.1279 40.1228 67.1346 34.7119 67.1544C34.7119 65.9108 34.7119 64.6672 34.704 63.4222C35.6292 63.4143 36.549 63.409 37.4755 63.409C37.4953 53.5076 37.4544 43.5996 37.4953 33.6996C36.5702 33.693 35.6503 33.6784 34.7252 33.6731C34.7119 32.3673 34.6723 31.0549 34.7661 29.757ZM59.5524 29.7028C65.0532 29.6896 70.546 29.7293 76.0374 29.6763C76.044 31.0152 76.0441 32.3541 76.0441 33.693C75.0713 33.6864 74.1052 33.6718 73.1324 33.6665C73.1324 43.5864 73.1258 53.5076 73.1324 63.4354L76.0507 63.3547C76.044 64.6248 76.044 65.8976 76.0374 67.1623C70.546 67.1213 65.0452 67.128 59.5524 67.1544L59.5326 63.368L62.5856 63.4288C62.546 53.501 62.579 43.5798 62.5658 33.6586C61.56 33.6652 60.5463 33.6797 59.5392 33.693C59.5392 32.3607 59.5458 31.0337 59.5524 29.7028Z" fill="#DC0000"/>
<path fill-rule="evenodd" clip-rule="evenodd" d="M5.29712 70.1841C30.3266 70.2185 55.3574 70.1921 80.387 70.1974C80.387 71.4556 80.387 72.7203 80.3949 73.9785C55.3627 73.9587 30.3346 73.9719 5.30373 73.9719C5.29712 72.7071 5.29712 71.4489 5.29712 70.1841Z" fill="#103F84"/>
<mask id="mask1_1371_48" style="mask-type:luminance" maskUnits="userSpaceOnUse" x="0" y="76" width="86" height="5">
<path d="M0 76.7714H85.638V80.4983H0V76.7714Z" fill="#E4E4E4"/>
</mask>
<g mask="url(#mask1_1371_48)">
<path fill-rule="evenodd" clip-rule="evenodd" d="M0.0132166 76.7795C28.557 76.7729 57.1008 76.7663 85.638 76.7795V80.4918C57.0942 80.4918 28.5425 80.4654 0 80.4985C0.00660828 79.2614 0.0132166 78.0165 0.0132166 76.7795Z" fill="#E4E4E4"/>
</g>
<path d="M336.96 78.0165H332.021L339.546 56.2177H345.485L353 78.0165H348.061L342.601 61.1991H342.431L336.96 78.0165ZM336.651 69.4481H348.317V73.0458H336.651V69.4481Z" fill="#CDCDCD"/>
<path d="M329.41 56.2177V78.0165H324.802V56.2177H329.41Z" fill="#CDCDCD"/>
<path d="M321.497 63.8493H316.835C316.75 63.2462 316.576 62.7104 316.313 62.2421C316.051 61.7667 315.714 61.3622 315.302 61.0287C314.89 60.6952 314.415 60.4397 313.876 60.2623C313.344 60.0849 312.765 59.9962 312.141 59.9962C311.012 59.9962 310.03 60.2765 309.192 60.8371C308.355 61.3906 307.706 62.1995 307.245 63.2639C306.783 64.3212 306.553 65.6056 306.553 67.117C306.553 68.671 306.783 69.9767 307.245 71.034C307.713 72.0913 308.366 72.8896 309.203 73.4289C310.04 73.9682 311.009 74.2378 312.109 74.2378C312.726 74.2378 313.297 74.1562 313.822 73.993C314.355 73.8298 314.827 73.5921 315.238 73.2799C315.65 72.9605 315.99 72.5738 316.26 72.1197C316.537 71.6655 316.728 71.1475 316.835 70.5657L321.497 70.5869C321.376 71.5875 321.075 72.5525 320.592 73.4821C320.117 74.4046 319.474 75.2312 318.665 75.9621C317.864 76.6859 316.906 77.2607 315.792 77.6864C314.685 78.1051 313.432 78.3144 312.034 78.3144C310.09 78.3144 308.352 77.8745 306.819 76.9946C305.293 76.1147 304.087 74.841 303.2 73.1734C302.32 71.5059 301.88 69.4871 301.88 67.117C301.88 64.7399 302.327 62.7175 303.221 61.05C304.115 59.3824 305.329 58.1123 306.861 57.2395C308.394 56.3596 310.118 55.9196 312.034 55.9196C313.297 55.9196 314.468 56.097 315.547 56.4518C316.632 56.8066 317.594 57.3246 318.431 58.0058C319.269 58.6799 319.95 59.5066 320.475 60.4859C321.007 61.4651 321.348 62.5863 321.497 63.8493Z" fill="#CDCDCD"/>
<path d="M298.455 56.2177V78.0165H294.474L284.991 64.2964H284.831V78.0165H280.222V56.2177H284.267L293.676 69.9271H293.868V56.2177H298.455Z" fill="#CDCDCD"/>
<path d="M261.869 78.0165V56.2177H276.558V60.0176H266.478V65.2118H275.802V69.0117H266.478V74.2166H276.601V78.0165H261.869Z" fill="#CDCDCD"/>
<path d="M242.199 78.0165V56.2177H250.8C252.446 56.2177 253.851 56.5122 255.015 57.1012C256.186 57.683 257.076 58.5097 257.686 59.5812C258.304 60.6456 258.612 61.898 258.612 63.3385C258.612 64.7861 258.3 66.0314 257.676 67.0745C257.051 68.1105 256.147 68.9053 254.962 69.4588C253.784 70.0122 252.357 70.289 250.683 70.289H244.924V66.5849H249.938C250.817 66.5849 251.548 66.4643 252.13 66.223C252.712 65.9817 253.145 65.6198 253.429 65.1373C253.72 64.6548 253.865 64.0552 253.865 63.3385C253.865 62.6147 253.72 62.0045 253.429 61.5077C253.145 61.011 252.709 60.6349 252.12 60.3795C251.538 60.1169 250.803 59.9857 249.916 59.9857H246.808V78.0165H242.199ZM253.972 68.0963L259.389 78.0165H254.302L249.001 68.0963H253.972Z" fill="#CDCDCD"/>
<path d="M223.847 78.0165V56.2177H238.535V60.0176H228.456V65.2118H237.78V69.0117H228.456V74.2166H238.578V78.0165H223.847Z" fill="#CDCDCD"/>
<path d="M206.313 78.0165V56.2177H220.747V60.0176H210.922V65.2118H219.789V69.0117H210.922V78.0165H206.313Z" fill="#CDCDCD"/>
<path d="M198.498 62.4869C198.413 61.6283 198.048 60.9613 197.402 60.4859C196.756 60.0104 195.88 59.7727 194.773 59.7727C194.021 59.7727 193.385 59.8792 192.867 60.092C192.349 60.2978 191.952 60.5852 191.675 60.9542C191.406 61.3232 191.271 61.7418 191.271 62.2102C191.257 62.6005 191.338 62.9411 191.516 63.232C191.7 63.5229 191.952 63.7748 192.271 63.9877C192.591 64.1935 192.96 64.3744 193.378 64.5305C193.797 64.6796 194.244 64.8073 194.72 64.9137L196.678 65.3821C197.629 65.5949 198.502 65.8788 199.296 66.2336C200.091 66.5884 200.779 67.0248 201.361 67.5428C201.943 68.0608 202.394 68.671 202.713 69.3735C203.04 70.076 203.206 70.8814 203.213 71.7897C203.206 73.1237 202.866 74.2804 202.192 75.2596C201.525 76.2318 200.559 76.9875 199.296 77.5268C198.04 78.059 196.525 78.3251 194.751 78.3251C192.992 78.3251 191.459 78.0554 190.153 77.5161C188.855 76.9768 187.84 76.1786 187.109 75.1213C186.385 74.0569 186.006 72.7406 185.97 71.1724H190.43C190.48 71.9032 190.689 72.5135 191.058 73.0031C191.434 73.4856 191.934 73.8511 192.559 74.0994C193.19 74.3407 193.903 74.4613 194.698 74.4613C195.479 74.4613 196.156 74.3478 196.731 74.1207C197.313 73.8937 197.764 73.5779 198.083 73.1734C198.402 72.7689 198.562 72.3042 198.562 71.7791C198.562 71.2894 198.417 70.8779 198.126 70.5444C197.842 70.2109 197.423 69.927 196.87 69.6929C196.323 69.4587 195.653 69.2458 194.858 69.0542L192.484 68.4582C190.646 68.0111 189.195 67.3122 188.131 66.3613C187.067 65.4104 186.538 64.1296 186.545 62.5188C186.538 61.199 186.889 60.0459 187.599 59.0596C188.315 58.0732 189.298 57.3033 190.547 56.7498C191.796 56.1964 193.215 55.9196 194.805 55.9196C196.423 55.9196 197.835 56.1964 199.041 56.7498C200.254 57.3033 201.198 58.0732 201.872 59.0596C202.546 60.0459 202.894 61.1884 202.915 62.4869H198.498Z" fill="#CDCDCD"/>
<path d="M182.865 56.2177V78.0165H178.884L169.4 64.2964H169.241V78.0165H164.632V56.2177H168.677L178.086 69.9271H178.277V56.2177H182.865Z" fill="#CDCDCD"/>
<path d="M145.968 78.0165H141.029L148.554 56.2177H154.493L162.008 78.0165H157.069L151.609 61.1991H151.439L145.968 78.0165ZM145.659 69.4481H157.325V73.0458H145.659V69.4481Z" fill="#CDCDCD"/>
<path d="M122.541 78.0165V56.2177H131.141C132.787 56.2177 134.192 56.5122 135.356 57.1012C136.527 57.683 137.417 58.5097 138.027 59.5812C138.645 60.6456 138.953 61.898 138.953 63.3385C138.953 64.7861 138.641 66.0314 138.017 67.0745C137.392 68.1105 136.488 68.9053 135.303 69.4588C134.125 70.0122 132.698 70.289 131.024 70.289H125.265V66.5849H130.279C131.159 66.5849 131.889 66.4643 132.471 66.223C133.053 65.9817 133.486 65.6198 133.77 65.1373C134.061 64.6548 134.206 64.0552 134.206 63.3385C134.206 62.6147 134.061 62.0045 133.77 61.5077C133.486 61.011 133.05 60.6349 132.461 60.3795C131.879 60.1169 131.144 59.9857 130.257 59.9857H127.149V78.0165H122.541ZM134.313 68.0963L139.73 78.0165H134.643L129.342 68.0963H134.313Z" fill="#CDCDCD"/>
<path d="M101.689 60.0176V56.2177H119.592V60.0176H112.918V78.0165H108.363V60.0176H101.689Z" fill="#CDCDCD"/>
<path d="M324.634 47.3295H316.873L328.698 13.0743H338.032L349.84 47.3295H342.079L333.499 20.9022H333.231L324.634 47.3295ZM324.149 33.865H342.481V39.5184H324.149V33.865Z" fill="#CDCDCD"/>
<path d="M312.771 13.0743V47.3295H305.529V13.0743H312.771Z" fill="#CDCDCD"/>
<path d="M274.619 47.3295V13.0743H288.133C290.72 13.0743 292.928 13.5371 294.757 14.4626C296.597 15.377 297.996 16.676 298.955 18.3598C299.925 20.0324 300.41 22.0005 300.41 24.2641C300.41 26.5389 299.92 28.4959 298.938 30.135C297.957 31.763 296.535 33.0119 294.673 33.8817C292.822 34.7515 290.581 35.1863 287.949 35.1863H278.9V29.3656H286.778C288.161 29.3656 289.31 29.1761 290.224 28.7969C291.138 28.4178 291.819 27.8491 292.265 27.0909C292.722 26.3326 292.95 25.3904 292.95 24.2641C292.95 23.1268 292.722 22.1678 292.265 21.3872C291.819 20.6067 291.133 20.0157 290.207 19.6143C289.293 19.2017 288.139 18.9954 286.745 18.9954H281.861V47.3295H274.619ZM293.118 31.7407L301.631 47.3295H293.636L285.307 31.7407H293.118Z" fill="#CDCDCD"/>
<path d="M245.289 47.3295H237.528L249.354 13.0743H258.687L270.496 47.3295H262.735L254.154 20.9022H253.887L245.289 47.3295ZM244.804 33.865H263.136V39.5184H244.804V33.865Z" fill="#CDCDCD"/>
<path d="M234.835 25.067H227.509C227.375 24.1192 227.102 23.2773 226.69 22.5414C226.277 21.7943 225.747 21.1587 225.101 20.6346C224.454 20.1105 223.707 19.7091 222.859 19.4303C222.023 19.1515 221.114 19.0121 220.133 19.0121C218.36 19.0121 216.816 19.4526 215.5 20.3335C214.184 21.2033 213.164 22.4745 212.439 24.1471C211.714 25.8085 211.352 27.8268 211.352 30.2019C211.352 32.644 211.714 34.6957 212.439 36.3572C213.175 38.0186 214.201 39.2731 215.517 40.1206C216.832 40.968 218.355 41.3917 220.083 41.3917C221.053 41.3917 221.951 41.2635 222.776 41.007C223.612 40.7506 224.354 40.377 225 39.8864C225.647 39.3846 226.182 38.7769 226.606 38.0632C227.041 37.3496 227.342 36.5356 227.509 35.6212L234.835 35.6547C234.646 37.2269 234.172 38.7434 233.414 40.2042C232.667 41.6538 231.657 42.9529 230.386 44.1014C229.126 45.2388 227.621 46.142 225.87 46.811C224.131 47.4689 222.162 47.7979 219.966 47.7979C216.91 47.7979 214.179 47.1065 211.77 45.7238C209.373 44.3411 207.477 42.3396 206.083 39.7191C204.7 37.0987 204.009 33.9263 204.009 30.2019C204.009 26.4664 204.712 23.2885 206.117 20.668C207.522 18.0476 209.428 16.0516 211.837 14.6801C214.245 13.2974 216.955 12.606 219.966 12.606C221.951 12.606 223.791 12.8848 225.485 13.4423C227.191 13.9999 228.702 14.8139 230.018 15.8843C231.334 16.9437 232.404 18.2427 233.23 19.7815C234.066 21.3204 234.601 23.0822 234.835 25.067Z" fill="#CDCDCD"/>
<path d="M198.627 13.0743V47.3295H192.372L177.469 25.7695H177.218V47.3295H169.975V13.0743H176.331L191.117 34.6176H191.418V13.0743H198.627Z" fill="#CDCDCD"/>
<path d="M140.646 47.3295H132.885L144.711 13.0743H154.044L165.853 47.3295H158.092L149.511 20.9022H149.243L140.646 47.3295ZM140.161 33.865H158.493V39.5184H140.161V33.865Z" fill="#CDCDCD"/>
<path d="M103.602 47.3295V13.0743H117.317C119.837 13.0743 121.939 13.4479 123.623 14.195C125.307 14.9421 126.572 15.9791 127.42 17.3061C128.267 18.6219 128.691 20.1384 128.691 21.8556C128.691 23.1937 128.423 24.3701 127.888 25.3848C127.353 26.3884 126.617 27.2135 125.68 27.8603C124.755 28.4959 123.696 28.9475 122.502 29.2151V29.5496C123.807 29.6054 125.028 29.9733 126.165 30.6535C127.314 31.3337 128.245 32.2871 128.959 33.5137C129.672 34.7292 130.029 36.1788 130.029 37.8625C130.029 39.6801 129.578 41.3025 128.674 42.7298C127.782 44.146 126.461 45.2666 124.71 46.0918C122.96 46.917 120.802 47.3295 118.237 47.3295H103.602ZM110.844 41.4085H116.749C118.767 41.4085 120.239 41.0238 121.164 40.2544C122.09 39.4738 122.553 38.4368 122.553 37.1433C122.553 36.1955 122.324 35.3592 121.867 34.6344C121.41 33.9096 120.757 33.3409 119.91 32.9283C119.074 32.5157 118.076 32.3094 116.916 32.3094H110.844V41.4085ZM110.844 27.4087H116.213C117.206 27.4087 118.087 27.2358 118.856 26.8902C119.637 26.5333 120.25 26.0315 120.696 25.3848C121.153 24.7381 121.382 23.9631 121.382 23.0599C121.382 21.8221 120.941 20.8241 120.06 20.0659C119.191 19.3076 117.953 18.9285 116.347 18.9285H110.844V27.4087Z" fill="#CDCDCD"/>
<path d="M42.819 5.93781L45.0621 12.8415H52.3211L46.4485 17.1082L48.6916 24.0119L42.819 19.7452L36.9464 24.0119L39.1895 17.1082L33.3169 12.8415H40.5758L42.819 5.93781Z" fill="white"/>
</svg>
