<svg width="600" height="150" viewBox="0 0 600 150" fill="none" xmlns="http://www.w3.org/2000/svg">
<path fill-rule="evenodd" clip-rule="evenodd" d="M123.297 10.7336C124.586 10.2396 125.89 10 127.205 10C128.141 10 129.086 10.1248 130.027 10.3693C132.367 11.0331 134.254 12.3257 135.692 14.2422C137.131 16.1087 137.848 18.2398 137.848 20.6404V128.906C137.848 131.846 136.798 134.341 134.702 136.387C132.671 138.483 130.182 139.541 127.25 139.541C124.312 139.541 121.793 138.483 119.698 136.387C117.607 134.341 116.557 131.846 116.557 128.906V58.83C116.557 58.83 82.5909 115.017 82.4564 115.231C81.4758 116.853 79.9375 117.976 78.235 118.755C76.9258 119.364 75.4622 119.703 73.9289 119.703C72.3857 119.703 70.9271 119.364 69.6129 118.755C67.9154 117.976 66.3622 116.888 65.3964 115.241C65.2272 114.962 31.2964 58.83 31.2964 58.83V128.906C31.2964 131.846 30.251 134.341 28.1502 136.387C26.0544 138.483 23.5355 139.541 20.6084 139.541C17.6663 139.541 15.1822 138.483 13.1462 136.387C11.0504 134.341 10 131.846 10 128.906V20.6404C10 18.2398 10.7168 16.1087 12.1555 14.2422C13.5942 12.3257 15.4859 11.0331 17.8206 10.3693C18.7714 10.1248 19.7123 10 20.6482 10C21.9624 10 23.2617 10.2396 24.556 10.7336C26.7713 11.632 28.5136 13.0993 29.7681 15.1505L73.9289 88.2957L118.08 15.1505C119.339 13.0993 121.082 11.632 123.297 10.7336ZM226.36 16.0938C227.614 13.4486 229.874 10 236.007 10C241.568 10 244.405 13.4486 245.665 16.0938L296.676 124.364C297.94 127.014 298.074 129.734 297.089 132.529C296.103 135.324 294.291 137.355 291.653 138.623C289.019 139.886 286.311 140.02 283.528 139.037C280.746 138.044 278.719 136.222 277.46 133.577L236.012 45.6443L194.555 133.577C193.295 136.222 191.279 138.044 188.496 139.037C185.708 140.02 182.995 139.886 180.362 138.623C177.724 137.355 175.911 135.324 174.926 132.529C173.94 129.734 174.08 127.014 175.339 124.364L226.36 16.0938ZM347.481 28.99C360.136 16.3283 375.344 10 393.121 10C409.807 10 424.328 15.6296 436.679 26.9039C438.85 28.9002 439.995 31.3806 440.114 34.3551C440.228 37.3247 439.303 39.8949 437.306 42.0809C435.325 44.3168 432.856 45.4996 429.899 45.6244C426.947 45.7392 424.388 44.8009 422.218 42.8046C414.024 35.2884 404.331 31.5353 393.121 31.5353C381.253 31.5353 371.097 35.7725 362.665 44.2569C354.232 52.7363 350.015 62.9425 350.015 74.8755C350.015 86.9083 354.232 97.1095 362.665 105.594C371.097 114.073 381.253 118.31 393.121 118.31C404.331 118.31 414.024 114.562 422.218 107.041C424.388 105.05 426.947 104.107 429.899 104.231C432.856 104.351 435.325 105.529 437.306 107.77C439.303 109.961 440.228 112.526 440.114 115.496C439.995 118.465 438.85 120.951 436.679 122.947C424.328 134.216 409.807 139.851 393.121 139.851C375.344 139.851 360.136 133.522 347.481 120.861C334.892 108.139 328.599 92.8424 328.599 74.9703C328.599 57.0084 334.892 41.7116 347.481 28.99ZM572.034 13.1143C574.1 11.0381 576.574 10 579.466 10C582.354 10 584.833 11.0381 586.899 13.1143C588.965 15.1954 590 17.6908 590 20.6005V129.25C590 132.16 588.965 134.66 586.899 136.732C584.833 138.813 582.354 139.851 579.466 139.851C576.574 139.851 574.1 138.813 572.034 136.732C569.963 134.66 568.938 132.16 568.938 129.25V86.5989H503.894V129.25C503.894 132.16 502.888 134.66 500.887 136.732C498.821 138.813 496.342 139.851 493.454 139.851C490.557 139.851 488.083 138.813 486.022 136.732C483.956 134.66 482.921 132.16 482.921 129.25V20.6005C482.921 17.6908 483.956 15.1954 486.022 13.1143C488.083 11.0381 490.557 10 493.454 10C496.342 10 498.821 11.0381 500.887 13.1143C502.888 15.1954 503.894 17.6908 503.894 20.6005V65.4878H568.938V20.6005C568.938 17.6908 569.963 15.1954 572.034 13.1143Z" fill="url(#paint0_linear_3031_241)"/>
<defs>
<linearGradient id="paint0_linear_3031_241" x1="30.849" y1="14.6677" x2="84.2257" y2="253.084" gradientUnits="userSpaceOnUse">
<stop stop-color="#6B00AA"/>
<stop offset="1" stop-color="#5582FF"/>
</linearGradient>
</defs>
</svg>
