<svg width="145" height="32" viewBox="0 0 145 32" fill="none" xmlns="http://www.w3.org/2000/svg">
<g clip-path="url(#clip0_424_26)">
<path d="M16 32C24.8366 32 32 24.8366 32 16C32 7.16344 24.8366 0 16 0C7.16344 0 0 7.16344 0 16C0 24.8366 7.16344 32 16 32Z" fill="#26A17B"/>
<path fill-rule="evenodd" clip-rule="evenodd" d="M17.9228 17.3828V17.3808C17.8128 17.3888 17.2458 17.4228 15.9808 17.4228C14.9708 17.4228 14.2598 17.3928 14.0098 17.3808V17.3838C10.1218 17.2128 7.21978 16.5358 7.21978 15.7258C7.21978 14.9168 10.1218 14.2398 14.0098 14.0658V16.7098C14.2638 16.7278 14.9918 16.7708 15.9978 16.7708C17.2048 16.7708 17.8098 16.7208 17.9228 16.7108V14.0678C21.8028 14.2408 24.6978 14.9178 24.6978 15.7258C24.6978 16.5358 21.8028 17.2108 17.9228 17.3828ZM17.9228 13.7928V11.4268H23.3368V7.81885H8.59578V11.4268H14.0098V13.7918C9.60978 13.9938 6.30078 14.8658 6.30078 15.9098C6.30078 16.9538 9.60978 17.8248 14.0098 18.0278V25.6098H17.9228V18.0258C22.3158 17.8238 25.6168 16.9528 25.6168 15.9098C25.6168 14.8668 22.3158 13.9958 17.9228 13.7928Z" fill="white"/>
</g>
<path d="M46.4801 9.09091H47.8011V16.3139C47.8011 17.0597 47.6254 17.7255 47.2738 18.3114C46.9258 18.8938 46.4339 19.3537 45.7983 19.6911C45.1626 20.0249 44.4169 20.1918 43.5611 20.1918C42.7053 20.1918 41.9595 20.0249 41.3239 19.6911C40.6882 19.3537 40.1946 18.8938 39.843 18.3114C39.495 17.7255 39.321 17.0597 39.321 16.3139V9.09091H40.642V16.2074C40.642 16.7401 40.7592 17.2141 40.9936 17.6296C41.228 18.0415 41.5618 18.3665 41.995 18.6044C42.4318 18.8388 42.9538 18.956 43.5611 18.956C44.1683 18.956 44.6903 18.8388 45.1271 18.6044C45.5639 18.3665 45.8977 18.0415 46.1286 17.6296C46.3629 17.2141 46.4801 16.7401 46.4801 16.2074V9.09091ZM56.4051 11.8182C56.3412 11.2784 56.0819 10.8594 55.6274 10.5611C55.1729 10.2628 54.6153 10.1136 53.9548 10.1136C53.4719 10.1136 53.0493 10.1918 52.6871 10.348C52.3284 10.5043 52.0479 10.7191 51.8454 10.9925C51.6466 11.266 51.5471 11.5767 51.5471 11.9247C51.5471 12.2159 51.6164 12.4663 51.7549 12.6758C51.8969 12.8817 52.078 13.054 52.2982 13.1925C52.5184 13.3274 52.7492 13.4393 52.9907 13.5281C53.2322 13.6133 53.4541 13.6825 53.6565 13.7358L54.7645 14.0341C55.0486 14.1087 55.3646 14.2116 55.7126 14.343C56.0642 14.4744 56.3998 14.6538 56.7194 14.881C57.0425 15.1048 57.3089 15.3924 57.5184 15.744C57.7279 16.0955 57.8327 16.527 57.8327 17.0384C57.8327 17.6278 57.6782 18.1605 57.3692 18.6364C57.0638 19.1122 56.6164 19.4904 56.0269 19.771C55.441 20.0515 54.729 20.1918 53.8909 20.1918C53.1096 20.1918 52.4331 20.0657 51.8614 19.8136C51.2932 19.5614 50.8458 19.2099 50.5191 18.7589C50.1959 18.3079 50.0131 17.7841 49.9704 17.1875H51.3341C51.3696 17.5994 51.5081 17.9403 51.7496 18.2102C51.9946 18.4766 52.3035 18.6754 52.6764 18.8068C53.0528 18.9347 53.4577 18.9986 53.8909 18.9986C54.3952 18.9986 54.8479 18.9169 55.2492 18.7536C55.6505 18.5866 55.9683 18.3558 56.2027 18.0611C56.4371 17.7628 56.5542 17.4148 56.5542 17.017C56.5542 16.6548 56.453 16.3601 56.2506 16.1328C56.0482 15.9055 55.7819 15.7209 55.4516 15.5788C55.1214 15.4368 54.7645 15.3125 54.3809 15.206L53.0386 14.8224C52.1863 14.5774 51.5116 14.2276 51.0145 13.7731C50.5173 13.3185 50.2687 12.7237 50.2687 11.9886C50.2687 11.3778 50.4339 10.8452 50.7641 10.3906C51.0979 9.93253 51.5454 9.57741 52.1064 9.32528C52.6711 9.0696 53.3014 8.94176 53.9974 8.94176C54.7006 8.94176 55.3256 9.06783 55.8724 9.31996C56.4193 9.56854 56.8525 9.90945 57.1721 10.3427C57.4953 10.7759 57.6657 11.2678 57.6835 11.8182H56.4051ZM63.3711 20H60.0046V9.09091H63.5202C64.5785 9.09091 65.484 9.3093 66.2369 9.74609C66.9897 10.1793 67.5668 10.8026 67.968 11.6158C68.3693 12.4254 68.57 13.3949 68.57 14.5241C68.57 15.6605 68.3675 16.6388 67.9627 17.4592C67.5579 18.2759 66.9684 18.9045 66.1942 19.3448C65.4201 19.7816 64.479 20 63.3711 20ZM61.3256 18.8281H63.2859C64.1879 18.8281 64.9354 18.6541 65.5284 18.3061C66.1214 17.9581 66.5636 17.4627 66.8548 16.82C67.146 16.1772 67.2915 15.4119 67.2915 14.5241C67.2915 13.6435 67.1477 12.8853 66.8601 12.2496C66.5724 11.6104 66.1428 11.1204 65.571 10.7795C64.9993 10.435 64.2873 10.2628 63.435 10.2628H61.3256V18.8281ZM69.7352 10.2628V9.09091H77.917V10.2628H74.4866V20H73.1656V10.2628H69.7352ZM84.4515 14.5455C84.4515 13.2031 84.6255 11.9691 84.9735 10.8434C85.3251 9.71413 85.8258 8.67543 86.4757 7.72727H87.5836C87.3279 8.07884 87.0882 8.51207 86.8645 9.02699C86.6444 9.53835 86.4508 10.1012 86.2839 10.7156C86.117 11.3263 85.9856 11.9585 85.8897 12.6119C85.7974 13.2653 85.7512 13.9098 85.7512 14.5455C85.7512 15.3906 85.8329 16.2482 85.9963 17.1183C86.1596 17.9883 86.3798 18.7962 86.6568 19.5419C86.9338 20.2876 87.2427 20.8949 87.5836 21.3636H86.4757C85.8258 20.4155 85.3251 19.3786 84.9735 18.2528C84.6255 17.1236 84.4515 15.8878 84.4515 14.5455ZM89.0125 10.2628V9.09091H97.1943V10.2628H93.7639V20H92.4429V10.2628H89.0125ZM99.2331 20V9.09091H102.919C103.771 9.09091 104.471 9.23651 105.018 9.5277C105.565 9.81534 105.97 10.2113 106.232 10.7156C106.495 11.2198 106.627 11.7933 106.627 12.4361C106.627 13.0788 106.495 13.6488 106.232 14.146C105.97 14.6431 105.567 15.0337 105.023 15.3178C104.48 15.5984 103.786 15.7386 102.941 15.7386H99.9576V14.5455H102.898C103.48 14.5455 103.949 14.4602 104.304 14.2898C104.663 14.1193 104.922 13.8778 105.082 13.5653C105.245 13.2493 105.327 12.8729 105.327 12.4361C105.327 11.9993 105.245 11.6175 105.082 11.2908C104.919 10.9641 104.657 10.712 104.299 10.5344C103.94 10.3533 103.466 10.2628 102.877 10.2628H100.554V20H99.2331ZM104.368 15.0994L107.053 20H105.519L102.877 15.0994H104.368ZM117.606 12.5H116.285C116.207 12.12 116.07 11.7862 115.875 11.4986C115.683 11.2109 115.449 10.9695 115.172 10.7741C114.899 10.5753 114.595 10.4261 114.261 10.3267C113.927 10.2273 113.579 10.1776 113.217 10.1776C112.557 10.1776 111.958 10.3445 111.422 10.6783C110.889 11.0121 110.465 11.5039 110.149 12.1538C109.836 12.8036 109.68 13.6009 109.68 14.5455C109.68 15.4901 109.836 16.2873 110.149 16.9371C110.465 17.587 110.889 18.0788 111.422 18.4126C111.958 18.7464 112.557 18.9134 113.217 18.9134C113.579 18.9134 113.927 18.8636 114.261 18.7642C114.595 18.6648 114.899 18.5174 115.172 18.3221C115.449 18.1232 115.683 17.88 115.875 17.5923C116.07 17.3011 116.207 16.9673 116.285 16.5909H117.606C117.507 17.1484 117.326 17.6474 117.063 18.0877C116.8 18.5281 116.473 18.9027 116.083 19.2116C115.692 19.517 115.254 19.7496 114.767 19.9094C114.284 20.0692 113.767 20.1491 113.217 20.1491C112.287 20.1491 111.459 19.9219 110.735 19.4673C110.01 19.0128 109.44 18.3665 109.025 17.5284C108.609 16.6903 108.402 15.696 108.402 14.5455C108.402 13.3949 108.609 12.4006 109.025 11.5625C109.44 10.7244 110.01 10.0781 110.735 9.62358C111.459 9.16903 112.287 8.94176 113.217 8.94176C113.767 8.94176 114.284 9.02166 114.767 9.18146C115.254 9.34126 115.692 9.57564 116.083 9.88459C116.473 10.19 116.8 10.5629 117.063 11.0032C117.326 11.44 117.507 11.9389 117.606 12.5ZM119.549 20V19.0412L123.15 15.0994C123.573 14.6378 123.921 14.2365 124.194 13.8956C124.468 13.5511 124.67 13.228 124.801 12.9261C124.936 12.6207 125.004 12.3011 125.004 11.9673C125.004 11.5838 124.911 11.2518 124.727 10.9712C124.546 10.6907 124.297 10.4741 123.981 10.3214C123.665 10.1687 123.31 10.0923 122.916 10.0923C122.497 10.0923 122.131 10.1793 121.818 10.3533C121.509 10.5238 121.27 10.7635 121.099 11.0724C120.932 11.3814 120.849 11.7436 120.849 12.1591H119.592C119.592 11.5199 119.739 10.9588 120.034 10.4759C120.329 9.9929 120.73 9.61648 121.238 9.34659C121.749 9.0767 122.323 8.94176 122.958 8.94176C123.597 8.94176 124.164 9.0767 124.657 9.34659C125.151 9.61648 125.538 9.98047 125.819 10.4386C126.099 10.8967 126.24 11.4062 126.24 11.9673C126.24 12.3686 126.167 12.761 126.021 13.1445C125.879 13.5245 125.631 13.9489 125.275 14.4176C124.924 14.8828 124.436 15.451 123.811 16.1222L121.36 18.7429V18.8281H126.431V20H119.549ZM132.189 20.1491C131.387 20.1491 130.703 19.9308 130.139 19.494C129.574 19.0536 129.143 18.4162 128.844 17.5817C128.546 16.7436 128.397 15.7315 128.397 14.5455C128.397 13.3665 128.546 12.3597 128.844 11.5252C129.146 10.6871 129.579 10.0479 130.144 9.6076C130.712 9.16371 131.394 8.94176 132.189 8.94176C132.985 8.94176 133.665 9.16371 134.23 9.6076C134.798 10.0479 135.231 10.6871 135.529 11.5252C135.831 12.3597 135.982 13.3665 135.982 14.5455C135.982 15.7315 135.833 16.7436 135.535 17.5817C135.236 18.4162 134.805 19.0536 134.24 19.494C133.676 19.9308 132.992 20.1491 132.189 20.1491ZM132.189 18.9773C132.985 18.9773 133.603 18.5937 134.043 17.8267C134.483 17.0597 134.704 15.9659 134.704 14.5455C134.704 13.6009 134.602 12.7965 134.4 12.1325C134.201 11.4684 133.914 10.9624 133.537 10.6143C133.164 10.2663 132.715 10.0923 132.189 10.0923C131.401 10.0923 130.785 10.4812 130.341 11.2589C129.897 12.033 129.675 13.1286 129.675 14.5455C129.675 15.4901 129.775 16.2926 129.974 16.9531C130.172 17.6136 130.458 18.1161 130.831 18.4606C131.208 18.805 131.66 18.9773 132.189 18.9773ZM140.712 14.5455C140.712 15.8878 140.536 17.1236 140.185 18.2528C139.837 19.3786 139.338 20.4155 138.688 21.3636H137.58C137.836 21.0121 138.074 20.5788 138.294 20.0639C138.518 19.5526 138.713 18.9915 138.88 18.3807C139.047 17.7663 139.176 17.1325 139.269 16.479C139.365 15.8221 139.412 15.1776 139.412 14.5455C139.412 13.7003 139.331 12.8427 139.167 11.9727C139.004 11.1026 138.784 10.2947 138.507 9.54901C138.23 8.80327 137.921 8.19602 137.58 7.72727H138.688C139.338 8.67543 139.837 9.71413 140.185 10.8434C140.536 11.9691 140.712 13.2031 140.712 14.5455Z" fill="white"/>
<defs>
<clipPath id="clip0_424_26">
<rect width="32" height="32" fill="white"/>
</clipPath>
</defs>
</svg>
