<svg width="145" height="32" viewBox="0 0 145 32" fill="none" xmlns="http://www.w3.org/2000/svg">
<g clip-path="url(#clip0_424_25)">
<path d="M16 32C24.8366 32 32 24.8366 32 16C32 7.16344 24.8366 0 16 0C7.16344 0 0 7.16344 0 16C0 24.8366 7.16344 32 16 32Z" fill="#26A17B"/>
<path fill-rule="evenodd" clip-rule="evenodd" d="M17.9228 17.3828V17.3808C17.8128 17.3888 17.2458 17.4228 15.9808 17.4228C14.9708 17.4228 14.2598 17.3928 14.0098 17.3808V17.3838C10.1218 17.2128 7.21978 16.5358 7.21978 15.7258C7.21978 14.9168 10.1218 14.2398 14.0098 14.0658V16.7098C14.2638 16.7278 14.9918 16.7708 15.9978 16.7708C17.2048 16.7708 17.8098 16.7208 17.9228 16.7108V14.0678C21.8028 14.2408 24.6978 14.9178 24.6978 15.7258C24.6978 16.5358 21.8028 17.2108 17.9228 17.3828ZM17.9228 13.7928V11.4268H23.3368V7.81885H8.59578V11.4268H14.0098V13.7918C9.60978 13.9938 6.30078 14.8658 6.30078 15.9098C6.30078 16.9538 9.60978 17.8248 14.0098 18.0278V25.6098H17.9228V18.0258C22.3158 17.8238 25.6168 16.9528 25.6168 15.9098C25.6168 14.8668 22.3158 13.9958 17.9228 13.7928Z" fill="white"/>
</g>
<path d="M46.4801 11.0909H47.8011V18.3139C47.8011 19.0597 47.6254 19.7255 47.2738 20.3114C46.9258 20.8938 46.4339 21.3537 45.7983 21.6911C45.1626 22.0249 44.4169 22.1918 43.5611 22.1918C42.7053 22.1918 41.9595 22.0249 41.3239 21.6911C40.6882 21.3537 40.1946 20.8938 39.843 20.3114C39.495 19.7255 39.321 19.0597 39.321 18.3139V11.0909H40.642V18.2074C40.642 18.7401 40.7592 19.2141 40.9936 19.6296C41.228 20.0415 41.5618 20.3665 41.995 20.6044C42.4318 20.8388 42.9538 20.956 43.5611 20.956C44.1683 20.956 44.6903 20.8388 45.1271 20.6044C45.5639 20.3665 45.8977 20.0415 46.1286 19.6296C46.3629 19.2141 46.4801 18.7401 46.4801 18.2074V11.0909ZM56.4051 13.8182C56.3412 13.2784 56.0819 12.8594 55.6274 12.5611C55.1729 12.2628 54.6153 12.1136 53.9548 12.1136C53.4719 12.1136 53.0493 12.1918 52.6871 12.348C52.3284 12.5043 52.0479 12.7191 51.8454 12.9925C51.6466 13.266 51.5471 13.5767 51.5471 13.9247C51.5471 14.2159 51.6164 14.4663 51.7549 14.6758C51.8969 14.8817 52.078 15.054 52.2982 15.1925C52.5184 15.3274 52.7492 15.4393 52.9907 15.5281C53.2322 15.6133 53.4541 15.6825 53.6565 15.7358L54.7645 16.0341C55.0486 16.1087 55.3646 16.2116 55.7126 16.343C56.0642 16.4744 56.3998 16.6538 56.7194 16.881C57.0425 17.1048 57.3089 17.3924 57.5184 17.744C57.7279 18.0955 57.8327 18.527 57.8327 19.0384C57.8327 19.6278 57.6782 20.1605 57.3692 20.6364C57.0638 21.1122 56.6164 21.4904 56.0269 21.771C55.441 22.0515 54.729 22.1918 53.8909 22.1918C53.1096 22.1918 52.4331 22.0657 51.8614 21.8136C51.2932 21.5614 50.8458 21.2099 50.5191 20.7589C50.1959 20.3079 50.0131 19.7841 49.9704 19.1875H51.3341C51.3696 19.5994 51.5081 19.9403 51.7496 20.2102C51.9946 20.4766 52.3035 20.6754 52.6764 20.8068C53.0528 20.9347 53.4577 20.9986 53.8909 20.9986C54.3952 20.9986 54.8479 20.9169 55.2492 20.7536C55.6505 20.5866 55.9683 20.3558 56.2027 20.0611C56.4371 19.7628 56.5542 19.4148 56.5542 19.017C56.5542 18.6548 56.453 18.3601 56.2506 18.1328C56.0482 17.9055 55.7819 17.7209 55.4516 17.5788C55.1214 17.4368 54.7645 17.3125 54.3809 17.206L53.0386 16.8224C52.1863 16.5774 51.5116 16.2276 51.0145 15.7731C50.5173 15.3185 50.2687 14.7237 50.2687 13.9886C50.2687 13.3778 50.4339 12.8452 50.7641 12.3906C51.0979 11.9325 51.5454 11.5774 52.1064 11.3253C52.6711 11.0696 53.3014 10.9418 53.9974 10.9418C54.7006 10.9418 55.3256 11.0678 55.8724 11.32C56.4193 11.5685 56.8525 11.9094 57.1721 12.3427C57.4953 12.7759 57.6657 13.2678 57.6835 13.8182H56.4051ZM63.3711 22H60.0046V11.0909H63.5202C64.5785 11.0909 65.484 11.3093 66.2369 11.7461C66.9897 12.1793 67.5668 12.8026 67.968 13.6158C68.3693 14.4254 68.57 15.3949 68.57 16.5241C68.57 17.6605 68.3675 18.6388 67.9627 19.4592C67.5579 20.2759 66.9684 20.9045 66.1942 21.3448C65.4201 21.7816 64.479 22 63.3711 22ZM61.3256 20.8281H63.2859C64.1879 20.8281 64.9354 20.6541 65.5284 20.3061C66.1214 19.9581 66.5636 19.4627 66.8548 18.82C67.146 18.1772 67.2915 17.4119 67.2915 16.5241C67.2915 15.6435 67.1477 14.8853 66.8601 14.2496C66.5724 13.6104 66.1428 13.1204 65.571 12.7795C64.9993 12.435 64.2873 12.2628 63.435 12.2628H61.3256V20.8281ZM69.7352 12.2628V11.0909H77.917V12.2628H74.4866V22H73.1656V12.2628H69.7352ZM84.4515 16.5455C84.4515 15.2031 84.6255 13.9691 84.9735 12.8434C85.3251 11.7141 85.8258 10.6754 86.4757 9.72727H87.5836C87.3279 10.0788 87.0882 10.5121 86.8645 11.027C86.6444 11.5384 86.4508 12.1012 86.2839 12.7156C86.117 13.3263 85.9856 13.9585 85.8897 14.6119C85.7974 15.2653 85.7512 15.9098 85.7512 16.5455C85.7512 17.3906 85.8329 18.2482 85.9963 19.1183C86.1596 19.9883 86.3798 20.7962 86.6568 21.5419C86.9338 22.2876 87.2427 22.8949 87.5836 23.3636H86.4757C85.8258 22.4155 85.3251 21.3786 84.9735 20.2528C84.6255 19.1236 84.4515 17.8878 84.4515 16.5455ZM89.6091 22V11.0909H96.1929V12.2628H90.9301V15.9489H95.852V17.1207H90.9301V20.8281H96.2781V22H89.6091ZM98.574 22V11.0909H102.26C103.112 11.0909 103.812 11.2365 104.359 11.5277C104.906 11.8153 105.31 12.2113 105.573 12.7156C105.836 13.2198 105.967 13.7933 105.967 14.4361C105.967 15.0788 105.836 15.6488 105.573 16.146C105.31 16.6431 104.907 17.0337 104.364 17.3178C103.821 17.5984 103.127 17.7386 102.281 17.7386H99.2984V16.5455H102.239C102.821 16.5455 103.29 16.4602 103.645 16.2898C104.004 16.1193 104.263 15.8778 104.423 15.5653C104.586 15.2493 104.668 14.8729 104.668 14.4361C104.668 13.9993 104.586 13.6175 104.423 13.2908C104.259 12.9641 103.998 12.712 103.64 12.5344C103.281 12.3533 102.807 12.2628 102.217 12.2628H99.895V22H98.574ZM103.709 17.0994L106.394 22H104.859L102.217 17.0994H103.709ZM116.947 14.5H115.626C115.548 14.12 115.411 13.7862 115.216 13.4986C115.024 13.2109 114.79 12.9695 114.513 12.7741C114.239 12.5753 113.936 12.4261 113.602 12.3267C113.268 12.2273 112.92 12.1776 112.558 12.1776C111.897 12.1776 111.299 12.3445 110.763 12.6783C110.23 13.0121 109.806 13.5039 109.49 14.1538C109.177 14.8036 109.021 15.6009 109.021 16.5455C109.021 17.4901 109.177 18.2873 109.49 18.9371C109.806 19.587 110.23 20.0788 110.763 20.4126C111.299 20.7464 111.897 20.9134 112.558 20.9134C112.92 20.9134 113.268 20.8636 113.602 20.7642C113.936 20.6648 114.239 20.5174 114.513 20.3221C114.79 20.1232 115.024 19.88 115.216 19.5923C115.411 19.3011 115.548 18.9673 115.626 18.5909H116.947C116.848 19.1484 116.667 19.6474 116.404 20.0877C116.141 20.5281 115.814 20.9027 115.424 21.2116C115.033 21.517 114.594 21.7496 114.108 21.9094C113.625 22.0692 113.108 22.1491 112.558 22.1491C111.627 22.1491 110.8 21.9219 110.076 21.4673C109.351 21.0128 108.781 20.3665 108.366 19.5284C107.95 18.6903 107.743 17.696 107.743 16.5455C107.743 15.3949 107.95 14.4006 108.366 13.5625C108.781 12.7244 109.351 12.0781 110.076 11.6236C110.8 11.169 111.627 10.9418 112.558 10.9418C113.108 10.9418 113.625 11.0217 114.108 11.1815C114.594 11.3413 115.033 11.5756 115.424 11.8846C115.814 12.19 116.141 12.5629 116.404 13.0032C116.667 13.44 116.848 13.9389 116.947 14.5ZM118.89 22V21.0412L122.491 17.0994C122.913 16.6378 123.261 16.2365 123.535 15.8956C123.808 15.5511 124.011 15.228 124.142 14.9261C124.277 14.6207 124.345 14.3011 124.345 13.9673C124.345 13.5838 124.252 13.2518 124.068 12.9712C123.886 12.6907 123.638 12.4741 123.322 12.3214C123.006 12.1687 122.651 12.0923 122.256 12.0923C121.837 12.0923 121.472 12.1793 121.159 12.3533C120.85 12.5238 120.611 12.7635 120.44 13.0724C120.273 13.3814 120.19 13.7436 120.19 14.1591H118.933C118.933 13.5199 119.08 12.9588 119.375 12.4759C119.669 11.9929 120.071 11.6165 120.579 11.3466C121.09 11.0767 121.663 10.9418 122.299 10.9418C122.938 10.9418 123.505 11.0767 123.998 11.3466C124.492 11.6165 124.879 11.9805 125.16 12.4386C125.44 12.8967 125.58 13.4062 125.58 13.9673C125.58 14.3686 125.508 14.761 125.362 15.1445C125.22 15.5245 124.971 15.9489 124.616 16.4176C124.265 16.8828 123.776 17.451 123.151 18.1222L120.701 20.7429V20.8281H125.772V22H118.89ZM131.53 22.1491C130.728 22.1491 130.044 21.9308 129.479 21.494C128.915 21.0536 128.483 20.4162 128.185 19.5817C127.887 18.7436 127.738 17.7315 127.738 16.5455C127.738 15.3665 127.887 14.3597 128.185 13.5252C128.487 12.6871 128.92 12.0479 129.485 11.6076C130.053 11.1637 130.735 10.9418 131.53 10.9418C132.326 10.9418 133.006 11.1637 133.57 11.6076C134.139 12.0479 134.572 12.6871 134.87 13.5252C135.172 14.3597 135.323 15.3665 135.323 16.5455C135.323 17.7315 135.174 18.7436 134.875 19.5817C134.577 20.4162 134.146 21.0536 133.581 21.494C133.016 21.9308 132.333 22.1491 131.53 22.1491ZM131.53 20.9773C132.326 20.9773 132.944 20.5937 133.384 19.8267C133.824 19.0597 134.044 17.9659 134.044 16.5455C134.044 15.6009 133.943 14.7965 133.741 14.1325C133.542 13.4684 133.254 12.9624 132.878 12.6143C132.505 12.2663 132.056 12.0923 131.53 12.0923C130.742 12.0923 130.126 12.4812 129.682 13.2589C129.238 14.033 129.016 15.1286 129.016 16.5455C129.016 17.4901 129.116 18.2926 129.314 18.9531C129.513 19.6136 129.799 20.1161 130.172 20.4606C130.548 20.805 131.001 20.9773 131.53 20.9773ZM140.053 16.5455C140.053 17.8878 139.877 19.1236 139.526 20.2528C139.178 21.3786 138.679 22.4155 138.029 23.3636H136.921C137.177 23.0121 137.415 22.5788 137.635 22.0639C137.858 21.5526 138.054 20.9915 138.221 20.3807C138.388 19.7663 138.517 19.1325 138.609 18.479C138.705 17.8221 138.753 17.1776 138.753 16.5455C138.753 15.7003 138.672 14.8427 138.508 13.9727C138.345 13.1026 138.125 12.2947 137.848 11.549C137.571 10.8033 137.262 10.196 136.921 9.72727H138.029C138.679 10.6754 139.178 11.7141 139.526 12.8434C139.877 13.9691 140.053 15.2031 140.053 16.5455Z" fill="white"/>
<defs>
<clipPath id="clip0_424_25">
<rect width="32" height="32" fill="white"/>
</clipPath>
</defs>
</svg>
