<svg width="186" height="47" viewBox="0 0 186 47" fill="none" xmlns="http://www.w3.org/2000/svg">
<path d="M6.38246 41.1121C6.78901 41.1121 7.11965 40.7799 7.11965 40.3703C7.11965 39.9607 6.78901 39.6278 6.38246 39.6278C5.97663 39.6278 5.646 39.9607 5.646 40.3703C5.646 40.7799 5.97663 41.1121 6.38246 41.1121Z" fill="#009FE3"/>
<path d="M63.4107 46.9254C63.8181 46.9254 64.1479 46.5933 64.1479 46.1837C64.1479 45.7741 63.8181 45.4412 63.4107 45.4412C63.0049 45.4412 62.675 45.7741 62.675 46.1837C62.675 46.5933 63.0049 46.9254 63.4107 46.9254Z" fill="#69246F"/>
<path d="M28.5256 42.4308V42.4285C28.5241 41.6009 28.2364 40.9036 27.7155 40.4326L27.6787 40.4004L27.6703 40.3919H27.6687C27.1785 39.9716 26.5142 39.7492 25.7279 39.7422C25.7249 39.7415 25.7179 39.7415 25.7102 39.7415C25.7026 39.7415 25.6957 39.7415 25.6888 39.7422H25.6826C25.6588 39.7422 25.6428 39.743 25.6313 39.743C25.6221 39.743 25.6075 39.7422 25.5898 39.7422H25.5783C25.5722 39.7415 25.5645 39.7415 25.5553 39.7415H25.5522H25.5484C25.5438 39.7415 25.5384 39.7415 25.5331 39.7422C24.7475 39.7507 24.0862 39.9716 23.5976 40.3919H23.5953L23.5508 40.4326C23.0315 40.9021 22.7438 41.5963 22.74 42.4186V42.4193L22.7392 42.4232L22.7354 46.6812C22.7354 46.7372 22.7591 46.7939 22.8021 46.8331C22.8443 46.8737 22.9041 46.8967 22.964 46.8967H23.7219C23.7809 46.8967 23.84 46.8737 23.883 46.8331C23.9259 46.7939 23.9497 46.7372 23.9497 46.6812L23.9512 42.5666C23.9559 41.9637 24.11 41.5364 24.3885 41.2542C24.6585 40.9811 25.0697 40.8261 25.6358 40.8154C26.1966 40.8261 26.6078 40.9811 26.8778 41.2542C27.1555 41.5364 27.3097 41.9637 27.3143 42.5674L27.3135 46.6812C27.3135 46.7372 27.3381 46.7939 27.3803 46.8331C27.4232 46.8737 27.4823 46.8967 27.5422 46.8967H28.3008C28.3606 46.8967 28.4197 46.8737 28.4619 46.8331C28.5057 46.7939 28.5294 46.7372 28.5294 46.6812L28.5256 42.4308Z" fill="#D6006D"/>
<path d="M54.9514 42.4308V42.4285C54.9498 41.6009 54.6622 40.9036 54.1405 40.4326L54.1045 40.4004L54.096 40.3919H54.0945C53.6043 39.9716 52.94 39.7492 52.1529 39.7422C52.1506 39.7415 52.1437 39.7415 52.136 39.7415C52.1283 39.7415 52.1214 39.7415 52.1145 39.7422H52.1084C52.0846 39.7422 52.0685 39.743 52.057 39.743C52.0478 39.743 52.0332 39.7422 52.0156 39.7422H52.0041C51.9979 39.7415 51.9903 39.7415 51.9811 39.7415H51.978H51.9742C51.9695 39.7415 51.9642 39.7415 51.9588 39.7422C51.1733 39.7507 50.512 39.9716 50.0234 40.3919H50.0211L49.9766 40.4326C49.4572 40.9021 49.1696 41.5963 49.1657 42.4186V42.4193V42.4232L49.1611 46.6812C49.1611 46.7372 49.1849 46.7939 49.2279 46.8331C49.2708 46.8737 49.3291 46.8967 49.3897 46.8967H50.1476C50.2067 46.8967 50.2658 46.8737 50.3087 46.8331C50.3517 46.7939 50.3755 46.7372 50.3755 46.6812L50.377 42.5666C50.3816 41.9637 50.5358 41.5364 50.8143 41.2542C51.0835 40.9811 51.4955 40.8261 52.0616 40.8154C52.6224 40.8261 53.0336 40.9811 53.3036 41.2542C53.5813 41.5364 53.7355 41.9637 53.7401 42.5674L53.7393 46.6812C53.7393 46.7372 53.7639 46.7939 53.806 46.8331C53.849 46.8737 53.9081 46.8967 53.9679 46.8967H54.7266C54.7864 46.8967 54.8455 46.8737 54.8877 46.8331C54.9314 46.7939 54.9552 46.7372 54.9552 46.6812L54.9514 42.4308Z" fill="#D6006D"/>
<path d="M41.0056 40.4684C41.0018 40.463 40.9971 40.4584 40.9918 40.4538C40.5607 40.0557 39.8702 39.8087 39.0709 39.8071C39.0594 39.8064 39.0433 39.8064 39.0272 39.8064C38.3697 39.8064 37.7207 39.9437 37.1569 40.4262V40.4269V40.0027H37.1577V37.8572C37.1577 37.8012 37.1339 37.7452 37.091 37.7061C37.0487 37.6655 36.9897 37.6425 36.9291 37.6425H36.1827C36.1228 37.6425 36.0645 37.6655 36.0208 37.7061C35.9779 37.7452 35.9548 37.8012 35.9548 37.8572V40.0027V44.5584V46.6924C35.9548 46.7484 35.9786 46.8044 36.0208 46.8435C36.0638 46.8841 36.1228 46.9072 36.1827 46.9072H36.9298C36.9897 46.9072 37.048 46.8841 37.091 46.8435C37.1347 46.8044 37.1577 46.7484 37.1577 46.6924V46.2513C37.6563 46.8082 38.3713 47 39.0272 47H39.074C39.871 46.9977 40.5614 46.7507 40.9918 46.3533C41.7965 45.5916 41.9806 44.4241 41.9829 43.3387C41.9806 42.2595 41.7965 41.227 41.0056 40.4684ZM40.7816 43.3387V43.3541V43.3549V43.371C40.7793 44.0491 40.7072 44.7118 40.4494 45.1858C40.1963 45.6423 39.7889 45.9468 38.9965 45.9591C38.9919 45.9583 38.9834 45.9583 38.9673 45.9591H38.9543C38.1573 45.9506 37.7445 45.6453 37.4891 45.1851C37.2298 44.7095 37.1569 44.0414 37.1569 43.3587V43.318C37.1569 42.6399 37.2298 42.0953 37.4891 41.622C37.7445 41.161 38.1573 40.8557 38.9543 40.8481H38.9597H38.9727H38.985C39.782 40.8557 40.194 41.161 40.4502 41.6228C40.7087 42.0953 40.7816 42.6399 40.7816 43.318V43.3387Z" fill="#D6006D"/>
<path d="M21.8911 42.1153V42.11C21.8911 41.3882 21.651 40.7691 21.1477 40.3557C20.6399 39.9392 19.9127 39.7428 18.9745 39.7428H18.9415H18.9285C17.9442 39.7397 17.1633 39.9545 16.568 40.5873L16.5657 40.585L16.5312 40.6257C16.4867 40.6755 16.443 40.7261 16.4008 40.7806L16.3993 40.7829L16.3386 40.855C16.3018 40.898 16.2842 40.9555 16.2919 41.0146C16.2987 41.0737 16.3279 41.1296 16.3732 41.1688L16.4077 41.1987C16.4207 41.214 16.4353 41.2286 16.4514 41.2424L16.5849 41.3513L16.9385 41.6582C16.9838 41.6973 17.0436 41.7188 17.1019 41.7157C17.1595 41.7134 17.2139 41.6873 17.2492 41.6436L17.4771 41.3736H17.4763C17.6182 41.2202 17.7639 41.1112 17.9396 41.0338C18.1882 40.9248 18.5065 40.8742 18.9668 40.8696H18.973L18.9883 40.8688C19.6426 40.8712 20.05 41.0031 20.284 41.2086C20.5164 41.4096 20.6345 41.7142 20.6361 42.1874C20.6361 42.1905 20.6361 42.1989 20.6368 42.2097V42.6561H18.6929C17.9082 42.6576 17.2523 42.8348 16.779 43.2046C16.3087 43.5651 16.0464 44.1212 16.0464 44.7686V44.794C16.0479 45.3332 16.2504 45.8617 16.6186 46.2291C17.1165 46.7201 17.7793 46.8988 18.7812 46.8988H18.7919H19.2997C20.2172 46.8988 20.8747 46.6725 21.2989 46.2153C21.7215 45.7582 21.8911 45.0977 21.8911 44.2762V42.1276V42.1153ZM20.6368 44.3099C20.6353 44.8799 20.5103 45.1944 20.343 45.3409C19.9388 45.7137 19.4394 45.7697 18.8303 45.7704H18.8234H18.8118C18.225 45.772 17.8399 45.6699 17.6213 45.5119C17.4134 45.3616 17.3068 45.1468 17.3014 44.7778V44.761C17.3052 44.3951 17.4164 44.1665 17.6266 44.0046C17.846 43.8374 18.2165 43.7293 18.7696 43.7293H18.775H20.6368V44.3099Z" fill="#D6006D"/>
<path d="M48.3245 42.1254V42.12C48.3252 41.3982 48.0843 40.78 47.5811 40.3665C47.0748 39.95 46.3461 39.7544 45.4094 39.7544H45.3749H45.3626C44.3784 39.7521 43.5967 39.9653 43.0021 40.5981L42.9999 40.5966L42.9653 40.6373C42.9208 40.6864 42.8771 40.7378 42.8342 40.7915C42.8342 40.7922 42.8334 40.793 42.8334 40.793L42.7728 40.8659C42.736 40.9088 42.7183 40.9671 42.726 41.0254C42.7321 41.0837 42.7613 41.1405 42.8073 41.1796L42.8411 41.2088C42.8549 41.2249 42.8694 41.2394 42.8856 41.2532L43.0183 41.3622L43.3719 41.6682C43.418 41.7073 43.4778 41.7288 43.5353 41.7258C43.5928 41.7235 43.6465 41.6974 43.6834 41.6544L43.9105 41.3844C44.0524 41.2302 44.1981 41.1213 44.3738 41.0446C44.6223 40.9357 44.9407 40.8843 45.401 40.8804H45.4063L45.4224 40.8797C46.0768 40.8812 46.4841 41.0147 46.7173 41.2195C46.9498 41.4205 47.0679 41.725 47.0702 42.1975C47.0702 42.2006 47.0702 42.209 47.071 42.219V42.6654H45.1263C44.3423 42.6677 43.6864 42.8441 43.2124 43.2139C42.7429 43.5744 42.4805 44.1305 42.4797 44.7779L42.4805 44.8025C42.4813 45.3417 42.6838 45.8695 43.052 46.2369C43.5499 46.7271 44.2135 46.9058 45.2145 46.9058H45.2261H45.7331C46.6506 46.9065 47.3088 46.6795 47.7322 46.2231C48.1557 45.7667 48.3252 45.1062 48.3252 44.2847V42.1377L48.3245 42.1254ZM43.7355 44.7864V44.7695C43.7394 44.4036 43.8506 44.175 44.06 44.0147C44.2794 43.8467 44.6499 43.7385 45.2038 43.7385H45.2084H47.071V44.3192C47.0694 44.8876 46.9444 45.2021 46.7772 45.3494C46.3729 45.7214 45.8735 45.7774 45.2636 45.779H45.2567H45.246C44.6591 45.7797 44.2741 45.6777 44.0554 45.5197C43.8475 45.3694 43.7401 45.1553 43.7355 44.7864Z" fill="#D6006D"/>
<path d="M10.21 39.7678H8.92966L8.92811 38.4699L8.92733 37.8417C8.92733 37.7289 8.82914 37.6369 8.70718 37.6369H7.93699C7.87944 37.6369 7.82192 37.6583 7.78126 37.6967C7.73984 37.7351 7.71606 37.7888 7.71606 37.8417V38.9992H7.71684V45.0836C7.71684 45.5784 7.8595 46.0225 8.1725 46.36C8.4709 46.6868 8.95419 46.8901 9.51264 46.8901H9.5142H9.8855V46.8855H10.21C10.266 46.8855 10.3212 46.8609 10.3603 46.818C10.401 46.775 10.4232 46.7159 10.4232 46.6553V45.9036C10.4232 45.843 10.401 45.7839 10.3603 45.741C10.3212 45.6973 10.266 45.6735 10.21 45.6735H9.61469C9.49425 45.6689 9.39759 45.6535 9.31321 45.6244C9.25952 45.606 9.22653 45.5845 9.19506 45.5653C9.16133 45.5408 9.1429 45.5293 9.10915 45.4948C8.99485 45.3751 8.93119 45.1856 8.92966 44.9026V40.9805H10.21C10.266 40.9805 10.3212 40.9552 10.3603 40.9131C10.401 40.8701 10.4232 40.8103 10.4232 40.7497V39.9979C10.4232 39.9373 10.401 39.8783 10.3603 39.8353C10.3212 39.7916 10.266 39.7678 10.21 39.7678Z" fill="#D6006D"/>
<path d="M15.7321 40.6566L15.6615 40.5776C15.6584 40.5684 15.653 40.56 15.6438 40.5508L15.6016 40.5063L15.5426 40.4449L15.4935 40.3912L15.4919 40.3935C15.0562 39.9348 14.5139 39.7415 13.9362 39.7415C13.9247 39.7415 13.9109 39.7415 13.8917 39.7415C13.4813 39.7415 12.9973 39.9256 12.7073 40.2754L12.5063 40.5132V40.4134V39.9816C12.5063 39.9248 12.4825 39.8696 12.4396 39.8305C12.3974 39.7898 12.3383 39.7668 12.2785 39.7668H11.5321C11.4715 39.7668 11.4132 39.7898 11.3702 39.8305C11.3272 39.8696 11.3035 39.9248 11.3035 39.9816V40.4134V46.6835C11.3035 46.741 11.3272 46.7963 11.3702 46.8361C11.4124 46.876 11.4715 46.899 11.5321 46.899H11.6602C11.664 46.8998 11.6694 46.9006 11.6732 46.9006H12.1435C12.1473 46.9006 12.1519 46.8998 12.1557 46.899H12.2785C12.3383 46.899 12.3966 46.876 12.4396 46.8361C12.4833 46.7963 12.5063 46.741 12.5063 46.6835V46.5684C12.5063 46.5661 12.5071 46.5654 12.5071 46.5631V42.5873C12.5071 42.582 12.5063 42.5774 12.5063 42.572V42.2498C12.5293 41.8809 12.6467 41.5479 12.8392 41.3063C13.0448 41.0478 13.3471 40.8806 13.7544 40.8798C13.97 40.8798 14.1119 40.9051 14.2339 40.9558C14.3528 41.0079 14.4732 41.0961 14.632 41.2595L14.6681 41.2963L14.8299 41.4774C14.8683 41.5196 14.9243 41.5449 14.9826 41.5456C15.0416 41.5472 15.1015 41.5234 15.146 41.4828L15.706 40.9734C15.7505 40.9328 15.7789 40.8752 15.7842 40.8162C15.7896 40.7563 15.7696 40.6996 15.7321 40.6566Z" fill="#D6006D"/>
<path d="M34.5436 43.2327C34.5406 43.2312 34.5375 43.2289 34.5352 43.2274H34.5337C34.0979 42.9228 33.5456 42.817 32.9511 42.7656L31.8372 42.672C31.3731 42.6329 31.0862 42.537 30.919 42.4058C30.7778 42.2977 30.6904 42.1235 30.6873 41.8558V41.8497H30.6865L30.6873 41.8359C30.6904 41.5199 30.8131 41.289 31.031 41.1333C31.2649 40.9653 31.6378 40.8579 32.1663 40.8571H32.1709H32.1717C32.846 40.8587 33.4037 41.0151 33.8686 41.3151H33.8678L34.1501 41.5137C34.1954 41.5452 34.2529 41.5575 34.3081 41.5444C34.3649 41.5321 34.4163 41.4976 34.4493 41.4485L34.8658 40.8418C34.8996 40.7927 34.9134 40.7321 34.9057 40.6753C34.9011 40.6439 34.8896 40.614 34.872 40.5886C34.8566 40.5587 34.8344 40.5319 34.806 40.5119L34.7577 40.4782C34.0933 40.0041 33.1674 39.7387 32.1686 39.7372C31.3685 39.7372 30.6865 39.9297 30.1917 40.2979C29.7008 40.66 29.4116 41.2069 29.4116 41.8298V41.839V41.8428V41.8597C29.4116 42.4104 29.6149 42.8975 30.023 43.2289C30.4349 43.5664 31.0141 43.7451 31.7444 43.8042L32.8897 43.897C33.3101 43.9354 33.5717 44.029 33.7267 44.1578C33.8609 44.2675 33.9476 44.4409 33.9484 44.7178V44.7324V44.7347C33.9453 45.0837 33.8049 45.3245 33.5425 45.491C33.2618 45.6697 32.8038 45.7786 32.1686 45.7786H32.164C32.1617 45.7786 32.1579 45.7786 32.1525 45.7794H32.1464C31.3079 45.7748 30.7111 45.5869 30.2477 45.2033L30.0061 44.9985C29.9624 44.9625 29.9048 44.9449 29.8473 44.9533C29.789 44.9602 29.7338 44.9909 29.6954 45.0377L29.216 45.6168C29.1769 45.6636 29.1569 45.725 29.16 45.7833C29.163 45.8416 29.1899 45.8968 29.2329 45.9328L29.4607 46.1254L29.4599 46.1261C29.4638 46.13 29.4691 46.133 29.4729 46.1369L29.5029 46.1614L29.5052 46.1583C30.2094 46.6685 31.0878 46.9132 32.164 46.9132H32.1832C33.0708 46.9124 33.8195 46.7198 34.3657 46.3425C34.9049 45.9704 35.2271 45.3967 35.2264 44.7347V44.7017C35.2271 44.0343 34.9686 43.5311 34.5436 43.2327Z" fill="#D6006D"/>
<path d="M62.036 46.5996L61.1016 45.281L59.2299 42.5471L60.6851 41.0022L61.532 40.1071L61.5834 40.0503C61.6808 39.9513 61.6333 39.8493 61.5911 39.8094C61.5481 39.7696 61.489 39.7458 61.4292 39.7458H60.4557C60.399 39.7458 60.3238 39.791 60.2808 39.8286C60.2816 39.8286 60.2801 39.8286 60.2808 39.8286L57.0152 43.3119V40.4009V37.8319C57.0152 37.7759 56.9899 37.7199 56.9484 37.68C56.9055 37.6402 56.8456 37.6172 56.7858 37.6172H56.0394C55.9796 37.6172 55.9213 37.6402 55.8783 37.68C55.8346 37.7199 55.8108 37.7759 55.8108 37.8319V40.4009V46.6832C55.8108 46.74 55.8353 46.7952 55.8775 46.8351C55.9205 46.8749 55.9796 46.8987 56.0402 46.8987H56.7866C56.8456 46.8987 56.9047 46.8749 56.9484 46.8351C56.9914 46.7952 57.0152 46.74 57.0152 46.6832V44.8959L58.4297 43.3625L59.3825 44.7877H59.3779L60.7166 46.7883C60.748 46.8327 60.7971 46.9033 60.9099 46.9033H61.8818C61.9416 46.9033 62.0015 46.8795 62.0437 46.8389C62.0859 46.7998 62.1142 46.6977 62.036 46.5996Z" fill="#D6006D"/>
<path d="M53.6746 37.6846H53.8065L54.0021 38.2614L54.1985 37.6846H54.3289V38.3673H54.2415V37.9638C54.2415 37.9492 54.2415 37.9277 54.2415 37.894C54.2415 37.8618 54.2437 37.8288 54.2437 37.7912L54.0481 38.3673H53.9561L53.7605 37.7912V37.8119V37.8878C53.762 37.9239 53.762 37.9484 53.762 37.9638V38.3673H53.6746V37.6846Z" fill="#D6006D"/>
<path d="M54.7241 37.6844H55.0355C55.087 37.6844 55.1299 37.6921 55.1614 37.7074C55.225 37.735 55.2557 37.7887 55.2557 37.8685C55.2557 37.9084 55.2496 37.9422 55.2319 37.9682C55.2135 37.9935 55.1898 38.0158 55.1591 38.0319C55.1859 38.0434 55.2082 38.0564 55.2212 38.0749C55.2335 38.0917 55.2411 38.1217 55.2411 38.1615L55.2465 38.2513C55.2465 38.2781 55.2496 38.2973 55.2519 38.3104C55.2588 38.3303 55.268 38.3449 55.2826 38.3502V38.3671H55.169C55.166 38.3602 55.1652 38.3533 55.1614 38.3449C55.1591 38.3357 55.1583 38.3173 55.1575 38.2904L55.1521 38.1769C55.1483 38.1309 55.1338 38.1017 55.1031 38.0864C55.087 38.0779 55.0578 38.0749 55.0218 38.0749H54.8162V38.3671H54.7241V37.6844ZM55.0256 37.9966C55.067 37.9966 55.1008 37.9882 55.1261 37.9713C55.1491 37.9552 55.1629 37.9237 55.1629 37.877C55.1629 37.8294 55.146 37.7949 55.1108 37.7772C55.0916 37.7673 55.067 37.7634 55.0371 37.7634H54.8162V37.9966H55.0256Z" fill="#D6006D"/>
<path d="M54.5299 38.3637C54.5038 38.3637 54.4854 38.3445 54.4854 38.3138C54.4854 38.2839 54.5038 38.2632 54.5321 38.2632C54.5598 38.2632 54.579 38.2839 54.579 38.3138C54.579 38.3445 54.5598 38.3637 54.5299 38.3637Z" fill="#D6006D"/>
<path d="M55.4648 38.3637C55.4372 38.3637 55.4172 38.3445 55.4172 38.3138C55.4172 38.2839 55.4372 38.2632 55.4655 38.2632C55.4947 38.2632 55.5123 38.2839 55.5123 38.3138C55.5123 38.3445 55.4947 38.3637 55.4648 38.3637Z" fill="#D6006D"/>
<path d="M77.9374 9.17879C77.9244 9.16268 77.9113 9.14582 77.8937 9.13048C76.4914 7.83718 74.2499 7.03713 71.6516 7.03407C71.6171 7.02946 71.5634 7.02946 71.5128 7.02946C69.3763 7.02869 67.269 7.47434 65.4379 9.04225L65.4356 9.04378V7.66767H65.4395V0.699565C65.4395 0.515478 65.3612 0.33445 65.2231 0.206356C65.0858 0.0759578 64.894 0 64.6976 0H62.272C62.0795 0 61.8884 0.0759578 61.748 0.206356C61.6092 0.33445 61.5317 0.515478 61.5317 0.699565V7.66767H61.5332V22.4622H61.5317V29.3927C61.5317 29.5768 61.6115 29.7578 61.748 29.8851C61.8877 30.0163 62.0795 30.0915 62.2743 30.0915H64.6984C64.894 30.0915 65.085 30.0163 65.2231 29.8851C65.3643 29.7578 65.441 29.5768 65.441 29.3927V27.9605C67.0588 29.7693 69.3817 30.3929 71.5128 30.3922H71.6624C74.2537 30.3845 76.4952 29.5829 77.8937 28.2919C80.5065 25.8181 81.1033 22.0265 81.1118 18.5018C81.1049 14.9963 80.5065 11.6426 77.9374 9.17879ZM77.2094 18.501V18.5493V18.5555V18.6061C77.2025 20.8092 76.9693 22.9608 76.1316 24.5011C75.3077 25.9823 73.9837 26.9718 71.413 27.0117C71.3962 27.0086 71.3685 27.0086 71.3171 27.0117H71.2742C68.6859 26.9856 67.345 25.9938 66.5172 24.498C65.6719 22.9523 65.4356 20.7823 65.4356 18.5662V18.4328C65.4379 16.2312 65.6719 14.4647 66.5172 12.9252C67.345 11.4294 68.6859 10.4368 71.2742 10.413H71.2918H71.334H71.3739C73.9637 10.4368 75.3001 11.4278 76.1347 12.9282C76.9731 14.4647 77.2094 16.2312 77.2094 18.4328V18.501Z" fill="white"/>
<path d="M100.282 28.2262C102.851 25.7624 103.45 22.4087 103.456 18.9032C103.447 15.3785 102.851 11.5869 100.238 9.11304C98.84 7.82131 96.5985 7.02049 94.0064 7.01282H93.8568C91.7257 7.01129 89.4036 7.6349 87.785 9.44519V8.01154C87.785 7.82745 87.7083 7.64717 87.5671 7.51986C87.4291 7.38791 87.238 7.3135 87.0424 7.3135H84.6191C84.4235 7.3135 84.2317 7.38791 84.0928 7.51986C83.9555 7.64717 83.8757 7.82745 83.8757 8.01154V14.9428H83.8773V29.7366H83.8757V36.7054C83.8757 36.8887 83.9532 37.0706 84.0928 37.1979C84.2325 37.329 84.4235 37.405 84.616 37.405H87.0416C87.238 37.405 87.4298 37.329 87.5671 37.1979C87.7052 37.0706 87.7835 36.8887 87.7835 36.7054V29.7366H87.7796V28.3612L87.7819 28.3627C89.613 29.9299 91.7211 30.3763 93.8568 30.3748C93.9074 30.3748 93.9611 30.3748 93.9956 30.3702C96.5939 30.3679 98.8362 29.5678 100.238 28.2745C100.255 28.2584 100.268 28.2423 100.282 28.2262ZM99.5534 18.9722C99.5534 21.1737 99.3172 22.9403 98.4787 24.4767C97.6441 25.9771 96.3077 26.9682 93.7179 26.992H93.678H93.6358H93.6182C91.0299 26.9682 89.689 25.9756 88.8613 24.4798C88.0159 22.9403 87.7819 21.1737 87.7796 18.9722V18.8388C87.7796 16.6227 88.0159 14.4526 88.8613 12.9062C89.689 11.4112 91.0299 10.4194 93.6182 10.3933H93.6611C93.7133 10.3956 93.7402 10.3956 93.757 10.3933C96.3284 10.4324 97.6525 11.4219 98.4756 12.9039C99.3133 14.4442 99.5473 16.5959 99.5534 18.7981V18.8495V18.8549V18.904V18.9722Z" fill="white"/>
<path d="M135.084 32.2076C134.871 32.7852 134.488 33.718 134.233 34.2779C134.233 34.2779 133.772 35.2928 133.118 35.9486C132.52 36.5462 131.837 36.9581 131.067 37.1867C130.299 37.4145 129.794 37.4498 129.794 37.4498C129.179 37.4927 128.282 37.528 127.801 37.528C127.319 37.528 126.925 37.0233 126.925 36.4089V34.7627C126.925 34.1468 127.176 33.6428 127.48 33.6428C127.787 33.6428 128.538 33.5906 129.15 33.5269C129.15 33.5269 129.616 33.4779 130.043 33.1503C130.471 32.822 130.686 32.351 130.686 32.351C130.943 31.7911 131.321 30.8576 131.527 30.2769L131.975 29.0112C132.181 28.4305 132.175 27.4817 131.964 26.9033L125.175 8.35088C124.964 7.77249 125.295 7.29922 125.911 7.29922H128.283C128.899 7.29922 129.565 7.77635 129.763 8.36009L134.209 21.4809C134.408 22.0654 134.727 22.0631 134.92 21.4786L139.256 8.36315C139.449 7.7771 140.112 7.29922 140.728 7.29922H143.141C143.758 7.29922 144.087 7.77174 143.875 8.3501L135.084 32.2076Z" fill="white"/>
<path d="M123.969 14.8562V14.8401C123.97 12.5243 123.199 10.5383 121.582 9.2113C119.955 7.87583 117.618 7.24762 114.611 7.24607H114.502H114.461C111.301 7.2384 108.794 7.92494 106.885 9.95536L106.876 9.94847L106.767 10.0796C106.624 10.2377 106.483 10.4026 106.345 10.5767C106.345 10.5782 106.343 10.5805 106.343 10.5821L106.148 10.8145C106.03 10.9526 105.973 11.139 105.997 11.3261C106.017 11.5133 106.112 11.6943 106.259 11.8209L106.369 11.916C106.411 11.9666 106.458 12.0134 106.51 12.0564L106.936 12.4069L108.073 13.3888C108.218 13.5154 108.41 13.5844 108.596 13.5744C108.781 13.5675 108.953 13.4831 109.071 13.3435L109.8 12.4783V12.4775C110.255 11.985 110.723 11.6345 111.287 11.3875C112.084 11.0385 113.106 10.8743 114.585 10.8605L114.602 10.8598L114.651 10.8582C116.754 10.8636 118.061 11.2908 118.81 11.9475C119.557 12.5933 119.936 13.5706 119.941 15.0879C119.941 15.0978 119.941 15.1247 119.945 15.1592V16.5905H113.704C111.185 16.5967 109.08 17.1643 107.561 18.3495C106.052 19.5085 105.21 21.2919 105.209 23.3692L105.21 23.4482C105.213 25.1795 105.864 26.8762 107.047 28.0544C108.644 29.6285 110.772 30.2 113.986 30.2H114.022H115.652C118.596 30.203 120.708 29.4751 122.069 28.0092C123.426 26.5449 123.97 24.4231 123.97 21.7882V14.8953L123.969 14.8562ZM109.238 23.3968V23.3439C109.25 22.1695 109.608 21.4354 110.282 20.9191C110.987 20.3822 112.173 20.0347 113.951 20.0347H113.966H119.945V21.8972C119.939 23.7243 119.538 24.7338 119.002 25.2048C117.704 26.3999 116.1 26.5794 114.143 26.584H114.122H114.087C112.203 26.5863 110.966 26.2603 110.265 25.7509C109.597 25.27 109.255 24.5827 109.238 23.3968Z" fill="white"/>
<path d="M36.4761 7.34326C35.8317 7.34326 35.162 7.8503 34.9863 8.46857L30.7464 23.4211C30.5708 24.0409 30.2624 24.047 30.0614 23.4357L25.1296 8.45476C24.9294 7.84341 24.2382 7.34326 23.5945 7.34326H22.7101C22.0665 7.34326 21.376 7.84341 21.1766 8.45552L16.2846 23.4349C16.0844 24.0463 15.776 24.0417 15.5988 23.4226L11.3214 8.46857C11.1442 7.84952 10.4722 7.34326 9.82856 7.34326H8.02659C7.38373 7.34326 7.01626 7.84494 7.21033 8.4586L13.7532 29.0928C13.948 29.705 14.633 30.2082 15.2774 30.2082H16.5148C17.0894 30.2082 17.7084 29.7633 17.891 29.2179L22.7814 14.6228C22.9862 14.0122 23.3222 14.0122 23.5286 14.622L28.4175 29.0997C28.6238 29.7088 29.3188 30.2082 29.9617 30.2082H31.1591C31.756 30.2082 32.3896 29.7433 32.5691 29.1742L39.0958 8.45935C39.2891 7.84494 38.9209 7.34326 38.2781 7.34326L36.4761 7.34326Z" fill="white"/>
<path d="M43.9626 16.7352C44.0439 15.3131 44.1467 14.6756 44.5816 13.6071C45.381 11.7132 47.2129 10.5373 49.3623 10.5373C51.511 10.5373 53.3422 11.7124 54.1423 13.604C54.578 14.6756 54.6808 15.3131 54.7613 16.7352H43.9626ZM58.7596 18.0538C58.7596 11.2675 55.1587 7.0517 49.3623 7.0517C43.4785 7.0517 39.9651 11.3987 39.9651 18.679C39.9651 26.1771 43.5092 30.307 49.9423 30.307C53.9382 30.307 56.0823 28.9662 58.2464 26.8038L58.534 26.5162L55.7716 24.0922L55.5192 24.3438C53.7564 26.1073 52.3196 26.7317 50.032 26.7317C46.2217 26.7317 44.0638 24.31 43.9472 19.9086H58.7596V18.0538Z" fill="white"/>
<path d="M2.32442 12.0787C3.60856 12.0787 4.65184 11.0301 4.65184 9.73687C4.65184 8.44434 3.60856 7.39499 2.32442 7.39499C1.0433 7.39499 0 8.44434 0 9.73687C0 11.0301 1.0433 12.0787 2.32442 12.0787Z" fill="#D6006D"/>
<path d="M143.756 30.1952C145.041 30.1952 146.084 29.1466 146.084 27.8541C146.084 26.56 145.041 25.5107 143.756 25.5107C142.474 25.5107 141.433 26.56 141.433 27.8541C141.433 29.1466 142.474 30.1952 143.756 30.1952Z" fill="#D6006D"/>
<path d="M163.972 23.4323C163.576 24.9296 162.561 26.6977 159.975 26.6977C158.746 26.6977 157.683 26.2544 156.984 25.4489C156.092 24.4587 155.815 23.42 155.815 18.8521C155.815 14.2842 156.092 13.244 156.985 12.2538C157.683 11.4499 158.746 11.008 159.975 11.008C162.561 11.008 163.576 12.7754 163.972 14.2727H168.232C167.43 9.90576 164.335 7.30078 159.942 7.30078C157.538 7.30078 155.486 8.13382 153.841 9.77842C151.62 11.9999 151.621 14.7422 151.622 18.5376V19.1666C151.621 22.9621 151.62 25.7044 153.841 27.9266C155.486 29.5704 157.538 30.4042 159.942 30.4042C164.335 30.4042 167.43 27.7993 168.232 23.4323H163.972Z" fill="#D6006D"/>
<path d="M171.157 7.4946V30.2099H185.791V26.5034H175.349V7.4946H171.157Z" fill="#D6006D"/>
</svg>
